<svg width="86" height="20" viewBox="0 0 86 20" fill="none" xmlns="http://www.w3.org/2000/svg">
<path d="M80.2983 15.2131C79.2045 15.2131 78.2599 14.9858 77.4645 14.5312C76.6738 14.072 76.0653 13.4233 75.6392 12.5852C75.2131 11.7424 75 10.7505 75 9.60936C75 8.4872 75.2131 7.50236 75.6392 6.65482C76.0701 5.80254 76.6714 5.13967 77.4432 4.66618C78.215 4.18796 79.1217 3.94885 80.1634 3.94885C80.8357 3.94885 81.4702 4.05775 82.0668 4.27556C82.6681 4.48862 83.1984 4.82006 83.6577 5.26987C84.1217 5.71968 84.4863 6.2926 84.7514 6.98862C85.0166 7.67991 85.1491 8.50378 85.1491 9.46022V10.2486H76.2074V8.51561H82.6847C82.6799 8.02319 82.5734 7.58522 82.3651 7.20169C82.1567 6.81344 81.8655 6.50804 81.4915 6.2855C81.1222 6.06296 80.6913 5.95169 80.1989 5.95169C79.6733 5.95169 79.2116 6.07953 78.8139 6.33522C78.4162 6.58616 78.1061 6.9176 77.8835 7.32953C77.6657 7.73673 77.5544 8.18417 77.5497 8.67186V10.1846C77.5497 10.8191 77.6657 11.3636 77.8977 11.8182C78.1297 12.268 78.4541 12.6136 78.8707 12.8551C79.2874 13.0918 79.7751 13.2102 80.3338 13.2102C80.7079 13.2102 81.0464 13.1581 81.3494 13.054C81.6525 12.9451 81.9152 12.7864 82.1378 12.5781C82.3603 12.3698 82.5284 12.1117 82.642 11.804L85.0426 12.0739C84.8911 12.7083 84.6023 13.2623 84.1761 13.7358C83.7547 14.2045 83.215 14.5691 82.5568 14.8295C81.8987 15.0852 81.1458 15.2131 80.2983 15.2131Z" fill="black"/>
<path d="M57.6 15V4.0909H60.0574V5.94459H60.1852C60.4125 5.31959 60.7889 4.8319 61.3145 4.48152C61.8401 4.12641 62.4674 3.94885 63.1966 3.94885C63.9352 3.94885 64.5579 4.12878 65.0645 4.48862C65.5759 4.84374 65.9357 5.32906 66.144 5.94459H66.2577C66.4992 5.33853 66.9064 4.85558 67.4793 4.49573C68.0569 4.13114 68.7411 3.94885 69.5318 3.94885C70.5356 3.94885 71.3547 4.26609 71.9892 4.90056C72.6237 5.53503 72.9409 6.46069 72.9409 7.67755V15H70.3628V8.07527C70.3628 7.39819 70.1829 6.9034 69.823 6.5909C69.4632 6.27366 69.0228 6.11504 68.502 6.11504C67.8817 6.11504 67.3964 6.30917 67.046 6.69743C66.7004 7.08095 66.5276 7.58048 66.5276 8.19601V15H64.0063V7.96874C64.0063 7.40529 63.8358 6.95548 63.4949 6.61931C63.1587 6.28313 62.7184 6.11504 62.1739 6.11504C61.8046 6.11504 61.4684 6.20974 61.1653 6.39914C60.8623 6.58379 60.6208 6.84658 60.4409 7.18749C60.261 7.52366 60.171 7.91666 60.171 8.36647V15H57.6Z" fill="black"/>
<path d="M49.9273 15.2131C48.8619 15.2131 47.9386 14.9787 47.1574 14.5099C46.3761 14.0412 45.7701 13.3854 45.3392 12.5426C44.9131 11.6998 44.7 10.715 44.7 9.58806C44.7 8.46116 44.9131 7.47395 45.3392 6.62641C45.7701 5.77887 46.3761 5.12073 47.1574 4.65198C47.9386 4.18323 48.8619 3.94885 49.9273 3.94885C50.9926 3.94885 51.9159 4.18323 52.6972 4.65198C53.4784 5.12073 54.0821 5.77887 54.5083 6.62641C54.9391 7.47395 55.1546 8.46116 55.1546 9.58806C55.1546 10.715 54.9391 11.6998 54.5083 12.5426C54.0821 13.3854 53.4784 14.0412 52.6972 14.5099C51.9159 14.9787 50.9926 15.2131 49.9273 15.2131ZM49.9415 13.1534C50.5191 13.1534 51.0021 12.9948 51.3904 12.6775C51.7786 12.3556 52.0674 11.9247 52.2568 11.3849C52.451 10.8452 52.548 10.2438 52.548 9.58095C52.548 8.91334 52.451 8.30965 52.2568 7.76987C52.0674 7.22537 51.7786 6.79213 51.3904 6.47016C51.0021 6.14819 50.5191 5.9872 49.9415 5.9872C49.3496 5.9872 48.8572 6.14819 48.4642 6.47016C48.076 6.79213 47.7848 7.22537 47.5906 7.76987C47.4012 8.30965 47.3065 8.91334 47.3065 9.58095C47.3065 10.2438 47.4012 10.8452 47.5906 11.3849C47.7848 11.9247 48.076 12.3556 48.4642 12.6775C48.8572 12.9948 49.3496 13.1534 49.9415 13.1534Z" fill="black"/>
<path d="M29.9308 15V0.45459H32.5657V6.61226H39.3058V0.45459H41.9478V15H39.3058V8.82107H32.5657V15H29.9308Z" fill="black"/>
<path d="M18.9308 19.0909C18.5804 19.0909 18.256 19.0625 17.9578 19.0057C17.6642 18.9536 17.4298 18.8921 17.2546 18.8211L17.8512 16.8182C18.2253 16.9271 18.5591 16.9792 18.8526 16.9745C19.1462 16.9697 19.4043 16.8774 19.6268 16.6975C19.8541 16.5223 20.0458 16.2287 20.2021 15.8168L20.4222 15.2273L16.4663 4.09094H19.1936L21.7078 12.3296H21.8214L24.3427 4.09094H27.0771L22.7092 16.3211C22.5056 16.8987 22.2357 17.3935 21.8995 17.8054C21.5633 18.2221 21.1514 18.5393 20.6637 18.7571C20.1808 18.9797 19.6031 19.0909 18.9308 19.0909Z" fill="black"/>
<path d="M15.5536 4.09094L11.6687 15H8.82778L4.94284 4.09094H7.68432L10.1914 12.1946H10.3051L12.8193 4.09094H15.5536Z" fill="black"/>
<path d="M3.06961 0.45459V15H0.434662V0.45459H3.06961Z" fill="black"/>
</svg>
