<svg width="60" height="23" viewBox="0 0 60 23" fill="none" xmlns="http://www.w3.org/2000/svg">
<mask id="path-1-outside-1_789_142" maskUnits="userSpaceOnUse" x="7" y="9.00012" width="16" height="14" fill="black">
<rect fill="white" x="7" y="9.00012" width="16" height="14"/>
<path d="M9.19319 12.5681V19.0001H8.13719V12.5681H9.19319ZM8.67719 10.1561C8.83719 10.1561 8.97719 10.2121 9.09719 10.3241C9.22519 10.4281 9.28919 10.5961 9.28919 10.8281C9.28919 11.0521 9.22519 11.2201 9.09719 11.3321C8.97719 11.4441 8.83719 11.5001 8.67719 11.5001C8.50119 11.5001 8.35319 11.4441 8.23319 11.3321C8.11319 11.2201 8.05319 11.0521 8.05319 10.8281C8.05319 10.5961 8.11319 10.4281 8.23319 10.3241C8.35319 10.2121 8.50119 10.1561 8.67719 10.1561ZM12.6469 19.0001L10.2109 12.5681H11.3389L12.7069 16.3601C12.7709 16.5361 12.8389 16.7321 12.9109 16.9481C12.9829 17.1641 13.0469 17.3721 13.1029 17.5721C13.1589 17.7641 13.1989 17.9281 13.2229 18.0641H13.2709C13.3029 17.9281 13.3469 17.7601 13.4029 17.5601C13.4669 17.3601 13.5349 17.1521 13.6069 16.9361C13.6869 16.7201 13.7549 16.5281 13.8109 16.3601L15.1789 12.5681H16.3069L13.8589 19.0001H12.6469ZM16.3167 12.5681H17.4447L18.8367 16.2281C18.9167 16.4441 18.9887 16.6521 19.0527 16.8521C19.1247 17.0521 19.1887 17.2481 19.2447 17.4401C19.3007 17.6241 19.3447 17.8041 19.3767 17.9801H19.4247C19.4727 17.7801 19.5487 17.5201 19.6527 17.2001C19.7567 16.8721 19.8647 16.5441 19.9767 16.2161L21.2847 12.5681H22.4247L19.6527 19.8881C19.5007 20.2881 19.3207 20.6361 19.1127 20.9321C18.9127 21.2361 18.6647 21.4681 18.3687 21.6281C18.0807 21.7961 17.7287 21.8801 17.3127 21.8801C17.1207 21.8801 16.9527 21.8681 16.8087 21.8441C16.6647 21.8281 16.5407 21.8081 16.4367 21.7841V20.9441C16.5247 20.9601 16.6287 20.9761 16.7487 20.9921C16.8767 21.0081 17.0087 21.0161 17.1447 21.0161C17.3927 21.0161 17.6047 20.9681 17.7807 20.8721C17.9647 20.7841 18.1207 20.6521 18.2487 20.4761C18.3767 20.3081 18.4847 20.1081 18.5727 19.8761L18.9087 19.0241L16.3167 12.5681Z"/>
</mask>
<path d="M9.19319 12.5681V19.0001H8.13719V12.5681H9.19319ZM8.67719 10.1561C8.83719 10.1561 8.97719 10.2121 9.09719 10.3241C9.22519 10.4281 9.28919 10.5961 9.28919 10.8281C9.28919 11.0521 9.22519 11.2201 9.09719 11.3321C8.97719 11.4441 8.83719 11.5001 8.67719 11.5001C8.50119 11.5001 8.35319 11.4441 8.23319 11.3321C8.11319 11.2201 8.05319 11.0521 8.05319 10.8281C8.05319 10.5961 8.11319 10.4281 8.23319 10.3241C8.35319 10.2121 8.50119 10.1561 8.67719 10.1561ZM12.6469 19.0001L10.2109 12.5681H11.3389L12.7069 16.3601C12.7709 16.5361 12.8389 16.7321 12.9109 16.9481C12.9829 17.1641 13.0469 17.3721 13.1029 17.5721C13.1589 17.7641 13.1989 17.9281 13.2229 18.0641H13.2709C13.3029 17.9281 13.3469 17.7601 13.4029 17.5601C13.4669 17.3601 13.5349 17.1521 13.6069 16.9361C13.6869 16.7201 13.7549 16.5281 13.8109 16.3601L15.1789 12.5681H16.3069L13.8589 19.0001H12.6469ZM16.3167 12.5681H17.4447L18.8367 16.2281C18.9167 16.4441 18.9887 16.6521 19.0527 16.8521C19.1247 17.0521 19.1887 17.2481 19.2447 17.4401C19.3007 17.6241 19.3447 17.8041 19.3767 17.9801H19.4247C19.4727 17.7801 19.5487 17.5201 19.6527 17.2001C19.7567 16.8721 19.8647 16.5441 19.9767 16.2161L21.2847 12.5681H22.4247L19.6527 19.8881C19.5007 20.2881 19.3207 20.6361 19.1127 20.9321C18.9127 21.2361 18.6647 21.4681 18.3687 21.6281C18.0807 21.7961 17.7287 21.8801 17.3127 21.8801C17.1207 21.8801 16.9527 21.8681 16.8087 21.8441C16.6647 21.8281 16.5407 21.8081 16.4367 21.7841V20.9441C16.5247 20.9601 16.6287 20.9761 16.7487 20.9921C16.8767 21.0081 17.0087 21.0161 17.1447 21.0161C17.3927 21.0161 17.6047 20.9681 17.7807 20.8721C17.9647 20.7841 18.1207 20.6521 18.2487 20.4761C18.3767 20.3081 18.4847 20.1081 18.5727 19.8761L18.9087 19.0241L16.3167 12.5681Z" fill="black"/>
<path d="M9.19319 12.5681H9.49319V12.2681H9.19319V12.5681ZM9.19319 19.0001V19.3001H9.49319V19.0001H9.19319ZM8.13719 19.0001H7.83719V19.3001H8.13719V19.0001ZM8.13719 12.5681V12.2681H7.83719V12.5681H8.13719ZM9.09719 10.3241L8.89249 10.5434L8.90002 10.5505L8.90801 10.557L9.09719 10.3241ZM9.09719 11.3321L8.89953 11.1062L8.89249 11.1128L9.09719 11.3321ZM8.23319 11.3321L8.43788 11.1128L8.43788 11.1128L8.23319 11.3321ZM8.23319 10.3241L8.4298 10.551L8.43788 10.5434L8.23319 10.3241ZM9.19319 12.5681H8.89319V19.0001H9.19319H9.49319V12.5681H9.19319ZM9.19319 19.0001V18.7001H8.13719V19.0001V19.3001H9.19319V19.0001ZM8.13719 19.0001H8.43719V12.5681H8.13719H7.83719V19.0001H8.13719ZM8.13719 12.5681V12.8681H9.19319V12.5681V12.2681H8.13719V12.5681ZM8.67719 10.1561V10.4561C8.75905 10.4561 8.82645 10.4818 8.89249 10.5434L9.09719 10.3241L9.30188 10.1048C9.12793 9.94245 8.91533 9.85612 8.67719 9.85612V10.1561ZM9.09719 10.3241L8.90801 10.557C8.94066 10.5835 8.98919 10.6479 8.98919 10.8281H9.28919H9.58919C9.58919 10.5443 9.50972 10.2728 9.28637 10.0913L9.09719 10.3241ZM9.28919 10.8281H8.98919C8.98919 10.9947 8.94345 11.068 8.89964 11.1063L9.09719 11.3321L9.29474 11.5579C9.50693 11.3722 9.58919 11.1096 9.58919 10.8281H9.28919ZM9.09719 11.3321L8.89249 11.1128C8.82645 11.1744 8.75905 11.2001 8.67719 11.2001V11.5001V11.8001C8.91533 11.8001 9.12793 11.7138 9.30188 11.5514L9.09719 11.3321ZM8.67719 11.5001V11.2001C8.57117 11.2001 8.49809 11.169 8.43788 11.1128L8.23319 11.3321L8.02849 11.5514C8.20828 11.7192 8.43121 11.8001 8.67719 11.8001V11.5001ZM8.23319 11.3321L8.43788 11.1128C8.39835 11.0759 8.35319 11.0004 8.35319 10.8281H8.05319H7.75319C7.75319 11.1039 7.82803 11.3643 8.02849 11.5514L8.23319 11.3321ZM8.05319 10.8281H8.35319C8.35319 10.6421 8.40109 10.5756 8.42967 10.5508L8.23319 10.3241L8.03671 10.0974C7.82529 10.2806 7.75319 10.5501 7.75319 10.8281H8.05319ZM8.23319 10.3241L8.43788 10.5434C8.49809 10.4872 8.57117 10.4561 8.67719 10.4561V10.1561V9.85612C8.43121 9.85612 8.20829 9.937 8.02849 10.1048L8.23319 10.3241ZM12.6469 19.0001L12.3664 19.1064L12.4398 19.3001H12.6469V19.0001ZM10.2109 12.5681V12.2681H9.77652L9.93038 12.6744L10.2109 12.5681ZM11.3389 12.5681L11.6211 12.4663L11.5496 12.2681H11.3389V12.5681ZM12.7069 16.3601L12.4247 16.4619L12.425 16.4626L12.7069 16.3601ZM12.9109 16.9481L12.6263 17.043L12.6263 17.043L12.9109 16.9481ZM13.1029 17.5721L12.814 17.653L12.8149 17.6561L13.1029 17.5721ZM13.2229 18.0641L12.9275 18.1163L12.9712 18.3641H13.2229V18.0641ZM13.2709 18.0641V18.3641H13.5085L13.563 18.1328L13.2709 18.0641ZM13.4029 17.5601L13.117 17.4686L13.114 17.4792L13.4029 17.5601ZM13.6069 16.9361L13.3255 16.8319L13.3223 16.8413L13.6069 16.9361ZM13.8109 16.3601L13.5287 16.2583L13.5263 16.2653L13.8109 16.3601ZM15.1789 12.5681V12.2681H14.9682L14.8967 12.4663L15.1789 12.5681ZM16.3069 12.5681L16.5873 12.6748L16.7421 12.2681H16.3069V12.5681ZM13.8589 19.0001V19.3001H14.0658L14.1393 19.1068L13.8589 19.0001ZM12.6469 19.0001L12.9275 18.8939L10.4915 12.4619L10.2109 12.5681L9.93038 12.6744L12.3664 19.1064L12.6469 19.0001ZM10.2109 12.5681V12.8681H11.3389V12.5681V12.2681H10.2109V12.5681ZM11.3389 12.5681L11.0567 12.6699L12.4247 16.4619L12.7069 16.3601L12.9891 16.2583L11.6211 12.4663L11.3389 12.5681ZM12.7069 16.3601L12.425 16.4626C12.4879 16.6356 12.555 16.829 12.6263 17.043L12.9109 16.9481L13.1955 16.8533C13.1229 16.6352 13.054 16.4366 12.9889 16.2576L12.7069 16.3601ZM12.9109 16.9481L12.6263 17.043C12.6969 17.2548 12.7595 17.4581 12.814 17.653L13.1029 17.5721L13.3918 17.4912C13.3344 17.2861 13.2689 17.0734 13.1955 16.8533L12.9109 16.9481ZM13.1029 17.5721L12.8149 17.6561C12.8691 17.8418 12.906 17.9946 12.9275 18.1163L13.2229 18.0641L13.5184 18.012C13.4918 17.8617 13.4488 17.6864 13.3909 17.4881L13.1029 17.5721ZM13.2229 18.0641V18.3641H13.2709V18.0641V17.7641H13.2229V18.0641ZM13.2709 18.0641L13.563 18.1328C13.5937 18.0024 13.6365 17.8387 13.6918 17.641L13.4029 17.5601L13.114 17.4792C13.0574 17.6815 13.0122 17.8539 12.9789 17.9954L13.2709 18.0641ZM13.4029 17.5601L13.6887 17.6516C13.7523 17.4528 13.8199 17.2459 13.8915 17.031L13.6069 16.9361L13.3223 16.8413C13.25 17.0583 13.1816 17.2675 13.1172 17.4687L13.4029 17.5601ZM13.6069 16.9361L13.8883 17.0403C13.9691 16.8221 14.0382 16.6269 14.0955 16.455L13.8109 16.3601L13.5263 16.2653C13.4716 16.4294 13.4048 16.6182 13.3256 16.8319L13.6069 16.9361ZM13.8109 16.3601L14.0931 16.4619L15.4611 12.6699L15.1789 12.5681L14.8967 12.4663L13.5287 16.2583L13.8109 16.3601ZM15.1789 12.5681V12.8681H16.3069V12.5681V12.2681H15.1789V12.5681ZM16.3069 12.5681L16.0266 12.4614L13.5786 18.8934L13.8589 19.0001L14.1393 19.1068L16.5873 12.6748L16.3069 12.5681ZM13.8589 19.0001V18.7001H12.6469V19.0001V19.3001H13.8589V19.0001ZM16.3167 12.5681V12.2681H15.873L16.0383 12.6799L16.3167 12.5681ZM17.4447 12.5681L17.7251 12.4615L17.6516 12.2681H17.4447V12.5681ZM18.8367 16.2281L19.118 16.1239L19.1171 16.1215L18.8367 16.2281ZM19.0527 16.8521L18.7668 16.9436L18.7704 16.9537L19.0527 16.8521ZM19.2447 17.4401L18.9567 17.5241L18.9577 17.5275L19.2447 17.4401ZM19.3767 17.9801L19.0815 18.0338L19.1263 18.2801H19.3767V17.9801ZM19.4247 17.9801V18.2801H19.6612L19.7164 18.0501L19.4247 17.9801ZM19.6527 17.2001L19.938 17.2929L19.9387 17.2908L19.6527 17.2001ZM19.9767 16.2161L19.6943 16.1149L19.6928 16.1192L19.9767 16.2161ZM21.2847 12.5681V12.2681H21.0736L21.0023 12.4669L21.2847 12.5681ZM22.4247 12.5681L22.7052 12.6744L22.8591 12.2681H22.4247V12.5681ZM19.6527 19.8881L19.9331 19.9947L19.9332 19.9944L19.6527 19.8881ZM19.1127 20.9321L18.8671 20.7596L18.8621 20.7672L19.1127 20.9321ZM18.3687 21.6281L18.226 21.3641L18.2175 21.369L18.3687 21.6281ZM16.8087 21.8441L16.858 21.5482L16.8499 21.5469L16.8418 21.546L16.8087 21.8441ZM16.4367 21.7841H16.1367V22.0228L16.3692 22.0764L16.4367 21.7841ZM16.4367 20.9441L16.4904 20.649L16.1367 20.5847V20.9441H16.4367ZM16.7487 20.9921L16.709 21.2895L16.7115 21.2898L16.7487 20.9921ZM17.7807 20.8721L17.6513 20.6015L17.644 20.6049L17.637 20.6088L17.7807 20.8721ZM18.2487 20.4761L18.01 20.2943L18.0061 20.2997L18.2487 20.4761ZM18.5727 19.8761L18.2936 19.7661L18.2922 19.7697L18.5727 19.8761ZM18.9087 19.0241L19.1878 19.1342L19.2316 19.0231L19.1871 18.9123L18.9087 19.0241ZM16.3167 12.5681V12.8681H17.4447V12.5681V12.2681H16.3167V12.5681ZM17.4447 12.5681L17.1643 12.6748L18.5563 16.3348L18.8367 16.2281L19.1171 16.1215L17.7251 12.4615L17.4447 12.5681ZM18.8367 16.2281L18.5554 16.3323C18.6339 16.5445 18.7045 16.7482 18.767 16.9436L19.0527 16.8521L19.3384 16.7607C19.2729 16.556 19.1994 16.3437 19.118 16.1239L18.8367 16.2281ZM19.0527 16.8521L18.7704 16.9537C18.8405 17.1483 18.9025 17.3384 18.9567 17.5241L19.2447 17.4401L19.5327 17.3561C19.4749 17.1578 19.4089 16.956 19.335 16.7505L19.0527 16.8521ZM19.2447 17.4401L18.9577 17.5275C19.0106 17.7012 19.0517 17.87 19.0815 18.0338L19.3767 17.9801L19.6718 17.9265C19.6376 17.7383 19.5908 17.547 19.5317 17.3528L19.2447 17.4401ZM19.3767 17.9801V18.2801H19.4247V17.9801V17.6801H19.3767V17.9801ZM19.4247 17.9801L19.7164 18.0501C19.7618 17.861 19.8351 17.6094 19.938 17.2928L19.6527 17.2001L19.3674 17.1074C19.2623 17.4308 19.1836 17.6992 19.133 17.9101L19.4247 17.9801ZM19.6527 17.2001L19.9387 17.2908C20.042 16.9649 20.1493 16.639 20.2606 16.3131L19.9767 16.2161L19.6928 16.1192C19.5801 16.4492 19.4714 16.7793 19.3667 17.1094L19.6527 17.2001ZM19.9767 16.2161L20.2591 16.3174L21.5671 12.6694L21.2847 12.5681L21.0023 12.4669L19.6943 16.1149L19.9767 16.2161ZM21.2847 12.5681V12.8681H22.4247V12.5681V12.2681H21.2847V12.5681ZM22.4247 12.5681L22.1441 12.4619L19.3721 19.7819L19.6527 19.8881L19.9332 19.9944L22.7052 12.6744L22.4247 12.5681ZM19.6527 19.8881L19.3723 19.7816C19.2276 20.1623 19.0585 20.4874 18.8672 20.7596L19.1127 20.9321L19.3581 21.1046C19.5828 20.7849 19.7738 20.4139 19.9331 19.9947L19.6527 19.8881ZM19.1127 20.9321L18.8621 20.7672C18.687 21.0333 18.4749 21.2297 18.226 21.3642L18.3687 21.6281L18.5113 21.892C18.8545 21.7066 19.1383 21.439 19.3633 21.097L19.1127 20.9321ZM18.3687 21.6281L18.2175 21.369C17.9855 21.5044 17.6886 21.5801 17.3127 21.5801V21.8801V22.1801C17.7688 22.1801 18.1759 22.0879 18.5198 21.8873L18.3687 21.6281ZM17.3127 21.8801V21.5801C17.1324 21.5801 16.9816 21.5688 16.858 21.5482L16.8087 21.8441L16.7594 22.14C16.9238 22.1674 17.109 22.1801 17.3127 22.1801V21.8801ZM16.8087 21.8441L16.8418 21.546C16.7056 21.5308 16.5936 21.5125 16.5041 21.4918L16.4367 21.7841L16.3692 22.0764C16.4877 22.1038 16.6238 22.1254 16.7756 22.1423L16.8087 21.8441ZM16.4367 21.7841H16.7367V20.9441H16.4367H16.1367V21.7841H16.4367ZM16.4367 20.9441L16.383 21.2393C16.477 21.2564 16.5859 21.2731 16.709 21.2895L16.7487 20.9921L16.7883 20.6948C16.6715 20.6792 16.5724 20.6639 16.4904 20.649L16.4367 20.9441ZM16.7487 20.9921L16.7115 21.2898C16.8525 21.3074 16.9969 21.3161 17.1447 21.3161V21.0161V20.7161C17.0205 20.7161 16.9009 20.7088 16.7859 20.6944L16.7487 20.9921ZM17.1447 21.0161V21.3161C17.4311 21.3161 17.695 21.2606 17.9243 21.1355L17.7807 20.8721L17.637 20.6088C17.5144 20.6757 17.3542 20.7161 17.1447 20.7161V21.0161ZM17.7807 20.8721L17.9101 21.1428C18.1421 21.0318 18.336 20.8661 18.4913 20.6526L18.2487 20.4761L18.0061 20.2997C17.9054 20.4381 17.7873 20.5364 17.6513 20.6015L17.7807 20.8721ZM18.2487 20.4761L18.4873 20.6579C18.6356 20.4633 18.7567 20.237 18.8532 19.9825L18.5727 19.8761L18.2922 19.7697C18.2127 19.9793 18.1178 20.1529 18.0101 20.2943L18.2487 20.4761ZM18.5727 19.8761L18.8518 19.9862L19.1878 19.1342L18.9087 19.0241L18.6296 18.9141L18.2936 19.7661L18.5727 19.8761ZM18.9087 19.0241L19.1871 18.9123L16.5951 12.4563L16.3167 12.5681L16.0383 12.6799L18.6303 19.1359L18.9087 19.0241Z" fill="black" mask="url(#path-1-outside-1_789_142)"/>
<path d="M12.1573 3.32028C11.7235 5.5958 11.444 6.84711 10.1124 8.50852C11.2419 9.30936 11.6721 9.94975 12.1199 11.4023C10.75 11.9781 10.0936 12.5495 9.17604 12.3363L9.16753 13.6017C6.75707 12.7141 6.18531 12.0878 6.62354 9.49344C4.21463 10.3175 3.55309 10.1934 2.85766 8.03604L4.05242 7.90918C3.73219 7.63249 3.98814 6.23392 4.43444 4.76168C5.89703 4.91737 6.57541 5.26203 7.55055 6.29498C8.22333 3.90333 9.87171 3.84744 12.1573 3.32028Z" fill="#86EFAC"/>
<path d="M6.62354 9.49344C4.21463 10.3175 3.55309 10.1934 2.85766 8.03604L4.05242 7.90918C3.73219 7.63249 3.98814 6.23392 4.43444 4.76168C5.89703 4.91737 6.57541 5.26203 7.55055 6.29498C8.22333 3.90333 9.87171 3.84744 12.1573 3.32028C11.7235 5.5958 11.444 6.84711 10.1124 8.50852C11.2419 9.30936 11.6721 9.94975 12.1199 11.4023C10.75 11.9781 10.0936 12.5495 9.17604 12.3363L9.16753 13.6017C6.75707 12.7141 6.18531 12.0878 6.62354 9.49344ZM6.62354 9.49344C5.19077 10.7985 4.67101 12.2762 4.48316 14.0773M6.62354 9.49344C7.64852 7.26934 8.48549 7.00586 10.2173 5.70111M6.62354 9.49344C8.57795 8.42007 10.6834 10.3139 10.0753 11.0192M6.62354 9.49344C6.47952 7.75915 6.1771 7.01634 5.06818 6.27675M6.62354 9.49344C5.89294 8.76177 5.3921 8.66329 4.37306 8.9175M6.62354 9.49344C7.44844 10.2309 8.0273 10.5766 7.93823 11.8463" stroke="#004B2D" stroke-width="0.5"/>
<mask id="path-5-outside-2_789_142" maskUnits="userSpaceOnUse" x="22.9999" y="10.0002" width="34" height="10" fill="black">
<rect fill="white" x="22.9999" y="10.0002" width="34" height="10"/>
<path d="M30.7159 19.0002H29.6359V15.0042H25.2439V19.0002H24.1639V10.4322H25.2439V14.0562H29.6359V10.4322H30.7159V19.0002ZM38.5064 15.7722C38.5064 16.3082 38.4344 16.7842 38.2904 17.2002C38.1544 17.6082 37.9544 17.9562 37.6904 18.2442C37.4344 18.5322 37.1184 18.7522 36.7424 18.9042C36.3744 19.0482 35.9624 19.1202 35.5064 19.1202C35.0824 19.1202 34.6904 19.0482 34.3304 18.9042C33.9704 18.7522 33.6584 18.5322 33.3944 18.2442C33.1304 17.9562 32.9224 17.6082 32.7704 17.2002C32.6264 16.7842 32.5544 16.3082 32.5544 15.7722C32.5544 15.0602 32.6744 14.4602 32.9144 13.9722C33.1544 13.4762 33.4984 13.1002 33.9464 12.8442C34.3944 12.5802 34.9264 12.4482 35.5424 12.4482C36.1264 12.4482 36.6384 12.5802 37.0784 12.8442C37.5264 13.1002 37.8744 13.4762 38.1224 13.9722C38.3784 14.4602 38.5064 15.0602 38.5064 15.7722ZM33.6464 15.7722C33.6464 16.2762 33.7104 16.7162 33.8384 17.0922C33.9744 17.4602 34.1824 17.7442 34.4624 17.9442C34.7424 18.1442 35.0984 18.2442 35.5304 18.2442C35.9624 18.2442 36.3184 18.1442 36.5984 17.9442C36.8784 17.7442 37.0824 17.4602 37.2104 17.0922C37.3464 16.7162 37.4144 16.2762 37.4144 15.7722C37.4144 15.2602 37.3464 14.8242 37.2104 14.4642C37.0744 14.1042 36.8664 13.8282 36.5864 13.6362C36.3144 13.4362 35.9584 13.3362 35.5184 13.3362C34.8624 13.3362 34.3864 13.5522 34.0904 13.9842C33.7944 14.4162 33.6464 15.0122 33.6464 15.7722ZM47.236 12.4482C47.964 12.4482 48.508 12.6362 48.868 13.0122C49.228 13.3802 49.408 13.9802 49.408 14.8122V19.0002H48.364V14.8602C48.364 14.3562 48.256 13.9762 48.04 13.7202C47.832 13.4642 47.504 13.3362 47.056 13.3362C46.432 13.3362 45.984 13.5162 45.712 13.8762C45.448 14.2362 45.316 14.7602 45.316 15.4482V19.0002H44.272V14.8602C44.272 14.5242 44.224 14.2442 44.128 14.0202C44.032 13.7882 43.888 13.6162 43.696 13.5042C43.504 13.3922 43.256 13.3362 42.952 13.3362C42.52 13.3362 42.18 13.4282 41.932 13.6122C41.684 13.7882 41.504 14.0482 41.392 14.3922C41.288 14.7362 41.236 15.1602 41.236 15.6642V19.0002H40.18V12.5682H41.032L41.188 13.4442H41.248C41.384 13.2202 41.548 13.0362 41.74 12.8922C41.94 12.7402 42.16 12.6282 42.4 12.5562C42.64 12.4842 42.888 12.4482 43.144 12.4482C43.64 12.4482 44.052 12.5362 44.38 12.7122C44.716 12.8882 44.96 13.1602 45.112 13.5282H45.172C45.388 13.1602 45.68 12.8882 46.048 12.7122C46.424 12.5362 46.82 12.4482 47.236 12.4482ZM53.8789 12.4482C54.4309 12.4482 54.9029 12.5682 55.2949 12.8082C55.6949 13.0482 55.9989 13.3882 56.2069 13.8282C56.4229 14.2602 56.5309 14.7682 56.5309 15.3522V15.9882H52.1269C52.1429 16.7162 52.3269 17.2722 52.6789 17.6562C53.0389 18.0322 53.5389 18.2202 54.1789 18.2202C54.5869 18.2202 54.9469 18.1842 55.2589 18.1122C55.5789 18.0322 55.9069 17.9202 56.2429 17.7762V18.7002C55.9149 18.8442 55.5909 18.9482 55.2709 19.0122C54.9509 19.0842 54.5709 19.1202 54.1309 19.1202C53.5229 19.1202 52.9829 18.9962 52.5109 18.7482C52.0469 18.5002 51.6829 18.1322 51.4189 17.6442C51.1629 17.1482 51.0349 16.5442 51.0349 15.8322C51.0349 15.1282 51.1509 14.5242 51.3829 14.0202C51.6229 13.5162 51.9549 13.1282 52.3789 12.8562C52.8109 12.5842 53.3109 12.4482 53.8789 12.4482ZM53.8669 13.3122C53.3629 13.3122 52.9629 13.4762 52.6669 13.8042C52.3789 14.1242 52.2069 14.5722 52.1509 15.1482H55.4269C55.4269 14.7802 55.3709 14.4602 55.2589 14.1882C55.1469 13.9162 54.9749 13.7042 54.7429 13.5522C54.5189 13.3922 54.2269 13.3122 53.8669 13.3122Z"/>
</mask>
<path d="M30.7159 19.0002H29.6359V15.0042H25.2439V19.0002H24.1639V10.4322H25.2439V14.0562H29.6359V10.4322H30.7159V19.0002ZM38.5064 15.7722C38.5064 16.3082 38.4344 16.7842 38.2904 17.2002C38.1544 17.6082 37.9544 17.9562 37.6904 18.2442C37.4344 18.5322 37.1184 18.7522 36.7424 18.9042C36.3744 19.0482 35.9624 19.1202 35.5064 19.1202C35.0824 19.1202 34.6904 19.0482 34.3304 18.9042C33.9704 18.7522 33.6584 18.5322 33.3944 18.2442C33.1304 17.9562 32.9224 17.6082 32.7704 17.2002C32.6264 16.7842 32.5544 16.3082 32.5544 15.7722C32.5544 15.0602 32.6744 14.4602 32.9144 13.9722C33.1544 13.4762 33.4984 13.1002 33.9464 12.8442C34.3944 12.5802 34.9264 12.4482 35.5424 12.4482C36.1264 12.4482 36.6384 12.5802 37.0784 12.8442C37.5264 13.1002 37.8744 13.4762 38.1224 13.9722C38.3784 14.4602 38.5064 15.0602 38.5064 15.7722ZM33.6464 15.7722C33.6464 16.2762 33.7104 16.7162 33.8384 17.0922C33.9744 17.4602 34.1824 17.7442 34.4624 17.9442C34.7424 18.1442 35.0984 18.2442 35.5304 18.2442C35.9624 18.2442 36.3184 18.1442 36.5984 17.9442C36.8784 17.7442 37.0824 17.4602 37.2104 17.0922C37.3464 16.7162 37.4144 16.2762 37.4144 15.7722C37.4144 15.2602 37.3464 14.8242 37.2104 14.4642C37.0744 14.1042 36.8664 13.8282 36.5864 13.6362C36.3144 13.4362 35.9584 13.3362 35.5184 13.3362C34.8624 13.3362 34.3864 13.5522 34.0904 13.9842C33.7944 14.4162 33.6464 15.0122 33.6464 15.7722ZM47.236 12.4482C47.964 12.4482 48.508 12.6362 48.868 13.0122C49.228 13.3802 49.408 13.9802 49.408 14.8122V19.0002H48.364V14.8602C48.364 14.3562 48.256 13.9762 48.04 13.7202C47.832 13.4642 47.504 13.3362 47.056 13.3362C46.432 13.3362 45.984 13.5162 45.712 13.8762C45.448 14.2362 45.316 14.7602 45.316 15.4482V19.0002H44.272V14.8602C44.272 14.5242 44.224 14.2442 44.128 14.0202C44.032 13.7882 43.888 13.6162 43.696 13.5042C43.504 13.3922 43.256 13.3362 42.952 13.3362C42.52 13.3362 42.18 13.4282 41.932 13.6122C41.684 13.7882 41.504 14.0482 41.392 14.3922C41.288 14.7362 41.236 15.1602 41.236 15.6642V19.0002H40.18V12.5682H41.032L41.188 13.4442H41.248C41.384 13.2202 41.548 13.0362 41.74 12.8922C41.94 12.7402 42.16 12.6282 42.4 12.5562C42.64 12.4842 42.888 12.4482 43.144 12.4482C43.64 12.4482 44.052 12.5362 44.38 12.7122C44.716 12.8882 44.96 13.1602 45.112 13.5282H45.172C45.388 13.1602 45.68 12.8882 46.048 12.7122C46.424 12.5362 46.82 12.4482 47.236 12.4482ZM53.8789 12.4482C54.4309 12.4482 54.9029 12.5682 55.2949 12.8082C55.6949 13.0482 55.9989 13.3882 56.2069 13.8282C56.4229 14.2602 56.5309 14.7682 56.5309 15.3522V15.9882H52.1269C52.1429 16.7162 52.3269 17.2722 52.6789 17.6562C53.0389 18.0322 53.5389 18.2202 54.1789 18.2202C54.5869 18.2202 54.9469 18.1842 55.2589 18.1122C55.5789 18.0322 55.9069 17.9202 56.2429 17.7762V18.7002C55.9149 18.8442 55.5909 18.9482 55.2709 19.0122C54.9509 19.0842 54.5709 19.1202 54.1309 19.1202C53.5229 19.1202 52.9829 18.9962 52.5109 18.7482C52.0469 18.5002 51.6829 18.1322 51.4189 17.6442C51.1629 17.1482 51.0349 16.5442 51.0349 15.8322C51.0349 15.1282 51.1509 14.5242 51.3829 14.0202C51.6229 13.5162 51.9549 13.1282 52.3789 12.8562C52.8109 12.5842 53.3109 12.4482 53.8789 12.4482ZM53.8669 13.3122C53.3629 13.3122 52.9629 13.4762 52.6669 13.8042C52.3789 14.1242 52.2069 14.5722 52.1509 15.1482H55.4269C55.4269 14.7802 55.3709 14.4602 55.2589 14.1882C55.1469 13.9162 54.9749 13.7042 54.7429 13.5522C54.5189 13.3922 54.2269 13.3122 53.8669 13.3122Z" fill="black"/>
<path d="M30.7159 19.0002V19.3002H31.0159V19.0002H30.7159ZM29.6359 19.0002H29.3359V19.3002H29.6359V19.0002ZM29.6359 15.0042H29.9359V14.7042H29.6359V15.0042ZM25.2439 15.0042V14.7042H24.9439V15.0042H25.2439ZM25.2439 19.0002V19.3002H25.5439V19.0002H25.2439ZM24.1639 19.0002H23.8639V19.3002H24.1639V19.0002ZM24.1639 10.4322V10.1322H23.8639V10.4322H24.1639ZM25.2439 10.4322H25.5439V10.1322H25.2439V10.4322ZM25.2439 14.0562H24.9439V14.3562H25.2439V14.0562ZM29.6359 14.0562V14.3562H29.9359V14.0562H29.6359ZM29.6359 10.4322V10.1322H29.3359V10.4322H29.6359ZM30.7159 10.4322H31.0159V10.1322H30.7159V10.4322ZM30.7159 19.0002V18.7002H29.6359V19.0002V19.3002H30.7159V19.0002ZM29.6359 19.0002H29.9359V15.0042H29.6359H29.3359V19.0002H29.6359ZM29.6359 15.0042V14.7042H25.2439V15.0042V15.3042H29.6359V15.0042ZM25.2439 15.0042H24.9439V19.0002H25.2439H25.5439V15.0042H25.2439ZM25.2439 19.0002V18.7002H24.1639V19.0002V19.3002H25.2439V19.0002ZM24.1639 19.0002H24.4639V10.4322H24.1639H23.8639V19.0002H24.1639ZM24.1639 10.4322V10.7322H25.2439V10.4322V10.1322H24.1639V10.4322ZM25.2439 10.4322H24.9439V14.0562H25.2439H25.5439V10.4322H25.2439ZM25.2439 14.0562V14.3562H29.6359V14.0562V13.7562H25.2439V14.0562ZM29.6359 14.0562H29.9359V10.4322H29.6359H29.3359V14.0562H29.6359ZM29.6359 10.4322V10.7322H30.7159V10.4322V10.1322H29.6359V10.4322ZM30.7159 10.4322H30.4159V19.0002H30.7159H31.0159V10.4322H30.7159ZM38.2904 17.2002L38.0069 17.1021L38.0058 17.1054L38.2904 17.2002ZM37.6904 18.2442L37.4692 18.0415L37.4662 18.0449L37.6904 18.2442ZM36.7424 18.9042L36.8517 19.1836L36.8548 19.1824L36.7424 18.9042ZM34.3304 18.9042L34.2137 19.1807L34.219 19.1828L34.3304 18.9042ZM33.3944 18.2442L33.1733 18.447L33.1733 18.447L33.3944 18.2442ZM32.7704 17.2002L32.4868 17.2984L32.4893 17.305L32.7704 17.2002ZM32.9144 13.9722L33.1836 14.1046L33.1845 14.1029L32.9144 13.9722ZM33.9464 12.8442L34.0953 13.1047L34.0987 13.1027L33.9464 12.8442ZM37.0784 12.8442L36.924 13.1016L36.9296 13.1047L37.0784 12.8442ZM38.1224 13.9722L37.854 14.1064L37.8567 14.1116L38.1224 13.9722ZM33.8384 17.0922L33.5543 17.189L33.557 17.1962L33.8384 17.0922ZM34.4624 17.9442L34.6368 17.7001L34.6368 17.7001L34.4624 17.9442ZM36.5984 17.9442L36.424 17.7001L36.424 17.7001L36.5984 17.9442ZM37.2104 17.0922L36.9283 16.9902L36.9271 16.9937L37.2104 17.0922ZM37.2104 14.4642L37.4911 14.3582L37.4911 14.3582L37.2104 14.4642ZM36.5864 13.6362L36.4086 13.8781L36.4168 13.8837L36.5864 13.6362ZM34.0904 13.9842L34.3379 14.1538L34.3379 14.1538L34.0904 13.9842ZM38.5064 15.7722H38.2064C38.2064 16.2819 38.1379 16.7237 38.0069 17.1021L38.2904 17.2002L38.5739 17.2984C38.7309 16.8448 38.8064 16.3346 38.8064 15.7722H38.5064ZM38.2904 17.2002L38.0058 17.1054C37.8818 17.4774 37.702 17.7876 37.4693 18.0415L37.6904 18.2442L37.9116 18.447C38.2068 18.1249 38.427 17.7391 38.575 17.2951L38.2904 17.2002ZM37.6904 18.2442L37.4662 18.0449C37.2425 18.2966 36.9654 18.4905 36.63 18.6261L36.7424 18.9042L36.8548 19.1824C37.2714 19.014 37.6263 18.7679 37.9146 18.4436L37.6904 18.2442ZM36.7424 18.9042L36.6331 18.6249C36.3049 18.7533 35.9307 18.8202 35.5064 18.8202V19.1202V19.4202C35.9941 19.4202 36.444 19.3432 36.8517 19.1836L36.7424 18.9042ZM35.5064 19.1202V18.8202C35.117 18.8202 34.7632 18.7543 34.4418 18.6257L34.3304 18.9042L34.219 19.1828C34.6176 19.3422 35.0478 19.4202 35.5064 19.4202V19.1202ZM34.3304 18.9042L34.4471 18.6279C34.1268 18.4926 33.8504 18.2977 33.6156 18.0415L33.3944 18.2442L33.1733 18.447C33.4664 18.7667 33.814 19.0119 34.2137 19.1806L34.3304 18.9042ZM33.3944 18.2442L33.6156 18.0415C33.3805 17.7851 33.1916 17.4714 33.0515 17.0955L32.7704 17.2002L32.4893 17.305C32.6532 17.7451 32.8803 18.1274 33.1733 18.447L33.3944 18.2442ZM32.7704 17.2002L33.0539 17.1021C32.9229 16.7237 32.8544 16.2819 32.8544 15.7722H32.5544H32.2544C32.2544 16.3346 32.3299 16.8448 32.4869 17.2984L32.7704 17.2002ZM32.5544 15.7722H32.8544C32.8544 15.0925 32.9691 14.5407 33.1836 14.1046L32.9144 13.9722L32.6452 13.8398C32.3797 14.3797 32.2544 15.028 32.2544 15.7722H32.5544ZM32.9144 13.9722L33.1845 14.1029C33.4 13.6575 33.7035 13.3286 34.0953 13.1047L33.9464 12.8442L33.7976 12.5838C33.2934 12.8719 32.9089 13.295 32.6444 13.8416L32.9144 13.9722ZM33.9464 12.8442L34.0987 13.1027C34.4927 12.8705 34.97 12.7482 35.5424 12.7482V12.4482V12.1482C34.8828 12.1482 34.2961 12.2899 33.7941 12.5858L33.9464 12.8442ZM35.5424 12.4482V12.7482C36.0797 12.7482 36.5368 12.8692 36.9241 13.1015L37.0784 12.8442L37.2328 12.587C36.74 12.2913 36.1731 12.1482 35.5424 12.1482V12.4482ZM37.0784 12.8442L36.9296 13.1047C37.3223 13.3291 37.6305 13.6592 37.8541 14.1064L38.1224 13.9722L38.3907 13.8381C38.1183 13.2933 37.7306 12.8714 37.2273 12.5838L37.0784 12.8442ZM38.1224 13.9722L37.8567 14.1116C38.0846 14.5459 38.2064 15.095 38.2064 15.7722H38.5064H38.8064C38.8064 15.0254 38.6722 14.3746 38.3881 13.8329L38.1224 13.9722ZM33.6464 15.7722H33.3464C33.3464 16.3007 33.4134 16.7747 33.5544 17.1889L33.8384 17.0922L34.1224 16.9956C34.0074 16.6578 33.9464 16.2518 33.9464 15.7722H33.6464ZM33.8384 17.0922L33.557 17.1962C33.7108 17.6125 33.9525 17.9487 34.288 18.1884L34.4624 17.9442L34.6368 17.7001C34.4123 17.5398 34.238 17.308 34.1198 16.9882L33.8384 17.0922ZM34.4624 17.9442L34.288 18.1884C34.6306 18.4331 35.052 18.5442 35.5304 18.5442V18.2442V17.9442C35.1448 17.9442 34.8542 17.8554 34.6368 17.7001L34.4624 17.9442ZM35.5304 18.2442V18.5442C36.0088 18.5442 36.4302 18.4331 36.7728 18.1884L36.5984 17.9442L36.424 17.7001C36.2066 17.8554 35.916 17.9442 35.5304 17.9442V18.2442ZM36.5984 17.9442L36.7728 18.1884C37.1098 17.9476 37.3482 17.6094 37.4938 17.1908L37.2104 17.0922L36.9271 16.9937C36.8166 17.3111 36.647 17.5409 36.424 17.7001L36.5984 17.9442ZM37.2104 17.0922L37.4925 17.1943C37.643 16.7783 37.7144 16.3024 37.7144 15.7722H37.4144H37.1144C37.1144 16.2501 37.0498 16.6542 36.9283 16.9902L37.2104 17.0922ZM37.4144 15.7722H37.7144C37.7144 15.2353 37.6433 14.7613 37.4911 14.3582L37.2104 14.4642L36.9298 14.5703C37.0495 14.8872 37.1144 15.2852 37.1144 15.7722H37.4144ZM37.2104 14.4642L37.4911 14.3582C37.3364 13.9488 37.0932 13.62 36.7561 13.3888L36.5864 13.6362L36.4168 13.8837C36.6396 14.0365 36.8124 14.2597 36.9298 14.5703L37.2104 14.4642ZM36.5864 13.6362L36.7641 13.3945C36.4269 13.1466 36.003 13.0362 35.5184 13.0362V13.3362V13.6362C35.9138 13.6362 36.2019 13.7259 36.4087 13.8779L36.5864 13.6362ZM35.5184 13.3362V13.0362C34.7916 13.0362 34.2091 13.2803 33.8429 13.8147L34.0904 13.9842L34.3379 14.1538C34.5637 13.8242 34.9332 13.6362 35.5184 13.6362V13.3362ZM34.0904 13.9842L33.8429 13.8147C33.5005 14.3145 33.3464 14.9777 33.3464 15.7722H33.6464H33.9464C33.9464 15.0467 34.0883 14.518 34.3379 14.1538L34.0904 13.9842ZM48.868 13.0122L48.6513 13.2197L48.6536 13.222L48.868 13.0122ZM49.408 19.0002V19.3002H49.708V19.0002H49.408ZM48.364 19.0002H48.064V19.3002H48.364V19.0002ZM48.04 13.7202L47.8072 13.9095L47.8107 13.9137L48.04 13.7202ZM45.712 13.8762L45.4726 13.6954L45.4701 13.6988L45.712 13.8762ZM45.316 19.0002V19.3002H45.616V19.0002H45.316ZM44.272 19.0002H43.972V19.3002H44.272V19.0002ZM44.128 14.0202L43.8508 14.135L43.8523 14.1384L44.128 14.0202ZM43.696 13.5042L43.8472 13.2451L43.8472 13.2451L43.696 13.5042ZM41.932 13.6122L42.1057 13.857L42.1108 13.8532L41.932 13.6122ZM41.392 14.3922L41.1067 14.2993L41.1049 14.3054L41.392 14.3922ZM41.236 19.0002V19.3002H41.536V19.0002H41.236ZM40.18 19.0002H39.88V19.3002H40.18V19.0002ZM40.18 12.5682V12.2682H39.88V12.5682H40.18ZM41.032 12.5682L41.3274 12.5156L41.2833 12.2682H41.032V12.5682ZM41.188 13.4442L40.8927 13.4968L40.9367 13.7442H41.188V13.4442ZM41.248 13.4442V13.7442H41.4169L41.5045 13.5999L41.248 13.4442ZM41.74 12.8922L41.92 13.1322L41.9216 13.1311L41.74 12.8922ZM44.38 12.7122L44.2382 12.9766L44.2408 12.978L44.38 12.7122ZM45.112 13.5282L44.8348 13.6428L44.9114 13.8282H45.112V13.5282ZM45.172 13.5282V13.8282H45.3438L45.4308 13.6801L45.172 13.5282ZM46.048 12.7122L45.9208 12.4405L45.9186 12.4416L46.048 12.7122ZM47.236 12.4482V12.7482C47.9155 12.7482 48.3675 12.9232 48.6513 13.2197L48.868 13.0122L49.0847 12.8048C48.6486 12.3493 48.0125 12.1482 47.236 12.1482V12.4482ZM48.868 13.0122L48.6536 13.222C48.9333 13.5079 49.108 14.0125 49.108 14.8122H49.408H49.708C49.708 13.948 49.5228 13.2526 49.0825 12.8025L48.868 13.0122ZM49.408 14.8122H49.108V19.0002H49.408H49.708V14.8122H49.408ZM49.408 19.0002V18.7002H48.364V19.0002V19.3002H49.408V19.0002ZM48.364 19.0002H48.664V14.8602H48.364H48.064V19.0002H48.364ZM48.364 14.8602H48.664C48.664 14.3199 48.5491 13.8584 48.2693 13.5268L48.04 13.7202L47.8107 13.9137C47.9629 14.0941 48.064 14.3926 48.064 14.8602H48.364ZM48.04 13.7202L48.2729 13.5311C47.9893 13.182 47.56 13.0362 47.056 13.0362V13.3362V13.6362C47.4481 13.6362 47.6748 13.7464 47.8072 13.9094L48.04 13.7202ZM47.056 13.3362V13.0362C46.3765 13.0362 45.8211 13.2342 45.4727 13.6954L45.712 13.8762L45.9514 14.0571C46.1469 13.7983 46.4876 13.6362 47.056 13.6362V13.3362ZM45.712 13.8762L45.4701 13.6988C45.1529 14.1314 45.016 14.7288 45.016 15.4482H45.316H45.616C45.616 14.7917 45.7432 14.3411 45.954 14.0537L45.712 13.8762ZM45.316 15.4482H45.016V19.0002H45.316H45.616V15.4482H45.316ZM45.316 19.0002V18.7002H44.272V19.0002V19.3002H45.316V19.0002ZM44.272 19.0002H44.572V14.8602H44.272H43.972V19.0002H44.272ZM44.272 14.8602H44.572C44.572 14.498 44.5206 14.1747 44.4038 13.9021L44.128 14.0202L43.8523 14.1384C43.9275 14.3138 43.972 14.5505 43.972 14.8602H44.272ZM44.128 14.0202L44.4052 13.9055C44.2876 13.6211 44.1031 13.3944 43.8472 13.2451L43.696 13.5042L43.5449 13.7634C43.6729 13.8381 43.7765 13.9553 43.8508 14.1349L44.128 14.0202ZM43.696 13.5042L43.8472 13.2451C43.5955 13.0983 43.2904 13.0362 42.952 13.0362V13.3362V13.6362C43.2216 13.6362 43.4126 13.6862 43.5449 13.7634L43.696 13.5042ZM42.952 13.3362V13.0362C42.4807 13.0362 42.07 13.1363 41.7533 13.3713L41.932 13.6122L42.1108 13.8532C42.2901 13.7202 42.5594 13.6362 42.952 13.6362V13.3362ZM41.932 13.6122L41.7584 13.3676C41.4485 13.5876 41.2348 13.9061 41.1068 14.2994L41.392 14.3922L41.6773 14.4851C41.7732 14.1904 41.9196 13.9889 42.1057 13.8569L41.932 13.6122ZM41.392 14.3922L41.1049 14.3054C40.9897 14.6864 40.936 15.1417 40.936 15.6642H41.236H41.536C41.536 15.1788 41.5864 14.7861 41.6792 14.4791L41.392 14.3922ZM41.236 15.6642H40.936V19.0002H41.236H41.536V15.6642H41.236ZM41.236 19.0002V18.7002H40.18V19.0002V19.3002H41.236V19.0002ZM40.18 19.0002H40.48V12.5682H40.18H39.88V19.0002H40.18ZM40.18 12.5682V12.8682H41.032V12.5682V12.2682H40.18V12.5682ZM41.032 12.5682L40.7367 12.6208L40.8927 13.4968L41.188 13.4442L41.4834 13.3916L41.3274 12.5156L41.032 12.5682ZM41.188 13.4442V13.7442H41.248V13.4442V13.1442H41.188V13.4442ZM41.248 13.4442L41.5045 13.5999C41.6224 13.4056 41.7614 13.2512 41.92 13.1322L41.74 12.8922L41.56 12.6522C41.3347 12.8212 41.1456 13.0348 40.9916 13.2886L41.248 13.4442ZM41.74 12.8922L41.9216 13.1311C42.093 13.0008 42.2808 12.9052 42.4862 12.8436L42.4 12.5562L42.3138 12.2689C42.0393 12.3512 41.787 12.4797 41.5585 12.6534L41.74 12.8922ZM42.4 12.5562L42.4862 12.8436C42.6977 12.7802 42.9166 12.7482 43.144 12.7482V12.4482V12.1482C42.8595 12.1482 42.5824 12.1883 42.3138 12.2689L42.4 12.5562ZM43.144 12.4482V12.7482C43.6064 12.7482 43.9659 12.8305 44.2382 12.9766L44.38 12.7122L44.5219 12.4479C44.1382 12.242 43.6737 12.1482 43.144 12.1482V12.4482ZM44.38 12.7122L44.2408 12.978C44.5112 13.1196 44.7082 13.3363 44.8348 13.6428L45.112 13.5282L45.3893 13.4137C45.2119 12.9842 44.9209 12.6569 44.5192 12.4465L44.38 12.7122ZM45.112 13.5282V13.8282H45.172V13.5282V13.2282H45.112V13.5282ZM45.172 13.5282L45.4308 13.6801C45.6179 13.3612 45.866 13.1318 46.1775 12.9829L46.048 12.7122L45.9186 12.4416C45.4941 12.6446 45.1581 12.9593 44.9133 13.3764L45.172 13.5282ZM46.048 12.7122L46.1752 12.984C46.5113 12.8266 46.8639 12.7482 47.236 12.7482V12.4482V12.1482C46.7762 12.1482 46.3367 12.2459 45.9209 12.4405L46.048 12.7122ZM55.2949 12.8082L55.1382 13.0641L55.1405 13.0655L55.2949 12.8082ZM56.2069 13.8282L55.9356 13.9565L55.9386 13.9624L56.2069 13.8282ZM56.5309 15.9882V16.2882H56.8309V15.9882H56.5309ZM52.1269 15.9882V15.6882H51.8202L51.827 15.9948L52.1269 15.9882ZM52.6789 17.6562L52.4577 17.859L52.4622 17.8637L52.6789 17.6562ZM55.2589 18.1122L55.3263 18.4046L55.3316 18.4033L55.2589 18.1122ZM56.2429 17.7762H56.5429V17.3213L56.1247 17.5005L56.2429 17.7762ZM56.2429 18.7002L56.3635 18.9749L56.5429 18.8962V18.7002H56.2429ZM55.2709 19.0122L55.212 18.718L55.205 18.7196L55.2709 19.0122ZM52.5109 18.7482L52.3695 19.0128L52.3713 19.0138L52.5109 18.7482ZM51.4189 17.6442L51.1522 17.7819L51.155 17.787L51.4189 17.6442ZM51.3829 14.0202L51.112 13.8913L51.1104 13.8948L51.3829 14.0202ZM52.3789 12.8562L52.219 12.6024L52.2169 12.6037L52.3789 12.8562ZM52.6669 13.8042L52.4442 13.6033L52.4439 13.6036L52.6669 13.8042ZM52.1509 15.1482L51.8523 15.1192L51.8203 15.4482H52.1509V15.1482ZM55.4269 15.1482V15.4482H55.7269V15.1482H55.4269ZM55.2589 14.1882L54.9815 14.3025L54.9815 14.3025L55.2589 14.1882ZM54.7429 13.5522L54.5684 13.7966L54.5785 13.8032L54.7429 13.5522ZM53.8789 12.4482V12.7482C54.3868 12.7482 54.8021 12.8583 55.1382 13.0641L55.2949 12.8082L55.4515 12.5524C55.0037 12.2782 54.475 12.1482 53.8789 12.1482V12.4482ZM55.2949 12.8082L55.1405 13.0655C55.4874 13.2736 55.7518 13.5676 55.9357 13.9565L56.2069 13.8282L56.4781 13.7C56.2459 13.2089 55.9024 12.8229 55.4492 12.551L55.2949 12.8082ZM56.2069 13.8282L55.9386 13.9624C56.1298 14.3449 56.2309 14.8052 56.2309 15.3522H56.5309H56.8309C56.8309 14.7313 56.7159 14.1756 56.4752 13.6941L56.2069 13.8282ZM56.5309 15.3522H56.2309V15.9882H56.5309H56.8309V15.3522H56.5309ZM56.5309 15.9882V15.6882H52.1269V15.9882V16.2882H56.5309V15.9882ZM52.1269 15.9882L51.827 15.9948C51.8439 16.7668 52.04 17.4033 52.4577 17.859L52.6789 17.6562L52.9 17.4535C52.6137 17.1412 52.4418 16.6657 52.4268 15.9817L52.1269 15.9882ZM52.6789 17.6562L52.4622 17.8637C52.8913 18.3119 53.4771 18.5202 54.1789 18.5202V18.2202V17.9202C53.6006 17.9202 53.1865 17.7526 52.8956 17.4488L52.6789 17.6562ZM54.1789 18.2202V18.5202C54.6037 18.5202 54.9872 18.4828 55.3263 18.4046L55.2589 18.1122L55.1914 17.8199C54.9066 17.8857 54.57 17.9202 54.1789 17.9202V18.2202ZM55.2589 18.1122L55.3316 18.4033C55.6687 18.319 56.0119 18.2016 56.3611 18.052L56.2429 17.7762L56.1247 17.5005C55.8019 17.6389 55.489 17.7455 55.1861 17.8212L55.2589 18.1122ZM56.2429 17.7762H55.9429V18.7002H56.2429H56.5429V17.7762H56.2429ZM56.2429 18.7002L56.1223 18.4256C55.8122 18.5617 55.5089 18.6587 55.212 18.7181L55.2709 19.0122L55.3297 19.3064C55.6729 19.2378 56.0176 19.1268 56.3635 18.9749L56.2429 18.7002ZM55.2709 19.0122L55.205 18.7196C54.9125 18.7854 54.5557 18.8202 54.1309 18.8202V19.1202V19.4202C54.586 19.4202 54.9892 19.3831 55.3367 19.3049L55.2709 19.0122ZM54.1309 19.1202V18.8202C53.5646 18.8202 53.0737 18.7051 52.6504 18.4827L52.5109 18.7482L52.3713 19.0138C52.8921 19.2874 53.4811 19.4202 54.1309 19.4202V19.1202ZM52.5109 18.7482L52.6523 18.4837C52.2431 18.2649 51.9204 17.9407 51.6827 17.5015L51.4189 17.6442L51.155 17.787C51.4454 18.3238 51.8507 18.7355 52.3695 19.0128L52.5109 18.7482ZM51.4189 17.6442L51.6855 17.5067C51.4566 17.0633 51.3349 16.5092 51.3349 15.8322H51.0349H50.7349C50.7349 16.5793 50.8691 17.2332 51.1523 17.7818L51.4189 17.6442ZM51.0349 15.8322H51.3349C51.3349 15.1603 51.4457 14.6013 51.6554 14.1457L51.3829 14.0202L51.1104 13.8948C50.8561 14.4472 50.7349 15.0962 50.7349 15.8322H51.0349ZM51.3829 14.0202L51.6537 14.1492C51.8724 13.6901 52.169 13.3473 52.5409 13.1088L52.3789 12.8562L52.2169 12.6037C51.7408 12.9092 51.3734 13.3424 51.112 13.8913L51.3829 14.0202ZM52.3789 12.8562L52.5387 13.1101C52.9176 12.8716 53.3609 12.7482 53.8789 12.7482V12.4482V12.1482C53.2609 12.1482 52.7042 12.2969 52.219 12.6024L52.3789 12.8562ZM53.8669 13.3122V13.0122C53.2912 13.0122 52.8053 13.203 52.4442 13.6033L52.6669 13.8042L52.8896 14.0052C53.1204 13.7494 53.4346 13.6122 53.8669 13.6122V13.3122ZM52.6669 13.8042L52.4439 13.6036C52.1004 13.9852 51.9124 14.5011 51.8523 15.1192L52.1509 15.1482L52.4495 15.1773C52.5014 14.6434 52.6574 14.2633 52.8899 14.0049L52.6669 13.8042ZM52.1509 15.1482V15.4482H55.4269V15.1482V14.8482H52.1509V15.1482ZM55.4269 15.1482H55.7269C55.7269 14.7506 55.6664 14.3901 55.5363 14.074L55.2589 14.1882L54.9815 14.3025C55.0753 14.5304 55.1269 14.8099 55.1269 15.1482H55.4269ZM55.2589 14.1882L55.5363 14.074C55.4027 13.7497 55.193 13.4885 54.9073 13.3013L54.7429 13.5522L54.5785 13.8032C54.7567 13.92 54.891 14.0828 54.9815 14.3025L55.2589 14.1882ZM54.7429 13.5522L54.9172 13.3081C54.6287 13.1021 54.2703 13.0122 53.8669 13.0122V13.3122V13.6122C54.1835 13.6122 54.409 13.6824 54.5685 13.7964L54.7429 13.5522Z" fill="black" mask="url(#path-5-outside-2_789_142)"/>
</svg>
