<svg width="119" height="36" viewBox="0 0 119 36" fill="none" xmlns="http://www.w3.org/2000/svg">
<path d="M17.3395 16.4545V31H14.2642V16.4545H17.3395ZM29.9833 20.0909L26.1694 31H22.7603L18.9464 20.0909H22.1424L24.408 27.8963H24.5217L26.7802 20.0909H29.9833ZM33.3995 35.0909C33.016 35.0909 32.6561 35.0601 32.32 34.9986C31.9885 34.9418 31.7139 34.8684 31.4961 34.7784L32.1779 32.5199C32.533 32.6288 32.8526 32.688 33.1367 32.6974C33.4255 32.7069 33.6741 32.6406 33.8825 32.4986C34.0955 32.3565 34.2683 32.1151 34.4009 31.7741L34.5785 31.3125L30.6651 20.0909H33.8469L36.1055 28.1023H36.2191L38.4989 20.0909H41.7021L37.462 32.179C37.2584 32.7661 36.9814 33.2775 36.631 33.7131C36.2854 34.1534 35.8474 34.492 35.3171 34.7287C34.7868 34.9702 34.1476 35.0909 33.3995 35.0909ZM47.9361 31V16.4545H51.0114V22.456H57.2543V16.4545H60.3224V31H57.2543V24.9915H51.0114V31H47.9361ZM67.7301 31.2131C66.6269 31.2131 65.6728 30.9787 64.8679 30.5099C64.0677 30.0365 63.4498 29.3783 63.0142 28.5355C62.5786 27.688 62.3608 26.7055 62.3608 25.5881C62.3608 24.4612 62.5786 23.4763 63.0142 22.6335C63.4498 21.786 64.0677 21.1278 64.8679 20.6591C65.6728 20.1856 66.6269 19.9489 67.7301 19.9489C68.8333 19.9489 69.785 20.1856 70.5852 20.6591C71.3902 21.1278 72.0104 21.786 72.446 22.6335C72.8816 23.4763 73.0994 24.4612 73.0994 25.5881C73.0994 26.7055 72.8816 27.688 72.446 28.5355C72.0104 29.3783 71.3902 30.0365 70.5852 30.5099C69.785 30.9787 68.8333 31.2131 67.7301 31.2131ZM67.7443 28.8693C68.2462 28.8693 68.6652 28.7273 69.0014 28.4432C69.3376 28.1544 69.5909 27.7614 69.7614 27.2642C69.9366 26.767 70.0241 26.2012 70.0241 25.5668C70.0241 24.9323 69.9366 24.3665 69.7614 23.8693C69.5909 23.3722 69.3376 22.9792 69.0014 22.6903C68.6652 22.4015 68.2462 22.2571 67.7443 22.2571C67.2377 22.2571 66.8116 22.4015 66.4659 22.6903C66.125 22.9792 65.867 23.3722 65.6918 23.8693C65.5213 24.3665 65.4361 24.9323 65.4361 25.5668C65.4361 26.2012 65.5213 26.767 65.6918 27.2642C65.867 27.7614 66.125 28.1544 66.4659 28.4432C66.8116 28.7273 67.2377 28.8693 67.7443 28.8693ZM75.0668 31V20.0909H77.9503V22.0156H78.0781C78.3054 21.3764 78.6842 20.8722 79.2145 20.5028C79.7448 20.1335 80.3793 19.9489 81.1179 19.9489C81.866 19.9489 82.5028 20.1359 83.0284 20.5099C83.554 20.8793 83.9044 21.3812 84.0795 22.0156H84.1932C84.4157 21.3906 84.8182 20.8911 85.4006 20.517C85.9877 20.1383 86.6813 19.9489 87.4815 19.9489C88.4995 19.9489 89.3258 20.2732 89.9602 20.9219C90.5994 21.5658 90.919 22.4796 90.919 23.6634V31H87.9006V24.2599C87.9006 23.6539 87.7396 23.1993 87.4176 22.8963C87.0956 22.5933 86.6932 22.4418 86.2102 22.4418C85.661 22.4418 85.2325 22.617 84.9247 22.9673C84.617 23.313 84.4631 23.7699 84.4631 24.3381V31H81.5298V24.196C81.5298 23.661 81.3759 23.2348 81.0682 22.9176C80.7652 22.6004 80.3651 22.4418 79.8679 22.4418C79.5317 22.4418 79.2287 22.527 78.9588 22.6974C78.6937 22.8632 78.483 23.0975 78.3267 23.4006C78.1705 23.6989 78.0923 24.0492 78.0923 24.4517V31H75.0668ZM98.2805 31.2131C97.1584 31.2131 96.1925 30.9858 95.3828 30.5312C94.5779 30.072 93.9576 29.4233 93.522 28.5852C93.0864 27.7424 92.8686 26.7457 92.8686 25.5952C92.8686 24.473 93.0864 23.4882 93.522 22.6406C93.9576 21.7931 94.5708 21.1326 95.3615 20.6591C96.157 20.1856 97.0897 19.9489 98.1598 19.9489C98.8795 19.9489 99.5495 20.0649 100.17 20.2969C100.795 20.5241 101.339 20.8674 101.803 21.3267C102.272 21.786 102.637 22.3636 102.897 23.0597C103.157 23.7509 103.288 24.5606 103.288 25.4886V26.3196H94.076V24.4446H100.44C100.44 24.009 100.345 23.6231 100.156 23.2869C99.9661 22.9508 99.7034 22.688 99.3672 22.4986C99.0357 22.3045 98.6499 22.2074 98.2095 22.2074C97.7502 22.2074 97.343 22.3139 96.9879 22.527C96.6375 22.7353 96.3629 23.017 96.1641 23.3722C95.9652 23.7225 95.8634 24.1132 95.8587 24.544V26.3267C95.8587 26.8665 95.9581 27.3329 96.157 27.7259C96.3606 28.1188 96.647 28.4219 97.0163 28.6349C97.3857 28.848 97.8236 28.9545 98.3303 28.9545C98.6664 28.9545 98.9742 28.9072 99.2536 28.8125C99.5329 28.7178 99.772 28.5758 99.9709 28.3864C100.17 28.197 100.321 27.965 100.425 27.6903L103.224 27.875C103.082 28.5473 102.79 29.1345 102.35 29.6364C101.915 30.1335 101.351 30.5218 100.66 30.8011C99.9732 31.0758 99.1802 31.2131 98.2805 31.2131Z" fill="black"/>
<path d="M11 20C9.24407 20.0053 7.55026 19.3505 6.25453 18.1654C4.95879 16.9803 4.15578 15.3515 4.00475 13.6021C3.85371 11.8527 4.3657 10.1104 5.43916 8.72074C6.51262 7.33112 8.06914 6.3957 9.80001 6.1C15.5 5 17 4.48 19 2C20 4 21 6.18 21 10C21 15.5 16.22 20 11 20Z" fill="#86EFAC" stroke="#166534" stroke-width="2" stroke-linecap="round" stroke-linejoin="round"/>
<path d="M2 21C2 18 3.85 15.64 7.08 15C9.5 14.52 12 13 13 12" stroke="#166534" stroke-width="2" stroke-linecap="round" stroke-linejoin="round"/>
</svg>
