<svg width="18" height="18" viewBox="0 0 18 18" fill="none" xmlns="http://www.w3.org/2000/svg">
<path d="M8.25001 15C6.93306 15.004 5.6627 14.5129 4.6909 13.6241C3.7191 12.7352 3.11684 11.5137 3.00357 10.2016C2.89029 8.8895 3.27428 7.58277 4.07938 6.54056C4.88447 5.49834 6.05186 4.79678 7.35001 4.575C11.625 3.75 12.75 3.36 14.25 1.5C15 3 15.75 4.635 15.75 7.5C15.75 11.625 12.165 15 8.25001 15Z" fill="#86EFAC" stroke="#166534" stroke-width="2" stroke-linecap="round" stroke-linejoin="round"/>
<path d="M1.5 15.75C1.5 13.5 2.8875 11.73 5.31 11.25C7.125 10.89 9 9.75 9.75 9" stroke="#166534" stroke-width="2" stroke-linecap="round" stroke-linejoin="round"/>
</svg>
